<?xml version="1.0" standalone="no"?>
<!DOCTYPE svg PUBLIC "-//W3C//DTD SVG 20010904//EN"
 "http://www.w3.org/TR/2001/REC-SVG-20010904/DTD/svg10.dtd">
<svg version="1.0" xmlns="http://www.w3.org/2000/svg"
 width="257.000000pt" height="257.000000pt" viewBox="0 0 257.000000 257.000000"
 preserveAspectRatio="xMidYMid meet">
<metadata>
Created by potrace 1.11, written by Peter Selinger 2001-2013
</metadata>
<g transform="translate(0.000000,257.000000) scale(0.100000,-0.100000)"
fill="#000000" stroke="none">
<path d="M1220 2389 c0 -6 -7 -9 -15 -5 -9 3 -19 -3 -26 -15 -6 -13 -17 -18
-26 -15 -9 4 -17 -1 -20 -14 -3 -11 -9 -20 -13 -20 -5 0 -19 -20 -31 -45 -15
-29 -29 -45 -41 -45 -16 0 -18 -6 -14 -45 3 -39 1 -45 -15 -45 -15 0 -17 -4
-9 -24 11 -31 -6 -39 -37 -19 -19 13 -23 12 -32 -6 -8 -14 -8 -27 0 -45 9 -19
9 -29 1 -39 -9 -10 -8 -17 0 -25 9 -9 9 -12 1 -12 -7 0 -14 4 -18 9 -5 9 -67
44 -69 39 -1 -2 -12 -15 -25 -30 l-23 -26 41 -26 c54 -35 53 -52 -1 -21 -53
31 -53 31 -56 -1 -1 -15 -7 -33 -13 -40 -7 -9 -6 -15 4 -21 19 -11 37 -47 37
-72 0 -15 -6 -21 -24 -21 -13 0 -30 -8 -37 -17 -12 -14 -12 -16 2 -11 9 4 20
-2 28 -14 11 -18 11 -20 -1 -15 -8 3 -21 1 -29 -4 -11 -7 -10 -11 6 -23 19
-15 17 -18 -15 -20 -8 -1 -15 -8 -15 -16 0 -8 -6 -19 -13 -23 -8 -6 -9 -13 -2
-26 7 -14 6 -22 -4 -30 -21 -17 -27 -51 -10 -58 18 -7 18 -23 -1 -23 -8 0 -12
-6 -9 -13 2 -7 -4 -22 -16 -32 -11 -10 -20 -24 -20 -32 0 -7 -6 -16 -14 -19
-8 -3 -12 -13 -9 -24 3 -10 0 -21 -6 -24 -17 -11 0 -37 20 -31 11 4 19 2 19
-5 0 -7 8 -9 20 -5 18 6 20 3 17 -22 -2 -15 1 -36 7 -45 8 -13 6 -22 -8 -37
-16 -18 -17 -21 -3 -26 16 -7 14 -54 -3 -84 -10 -18 18 -81 36 -81 6 0 19 11
28 25 21 32 35 32 28 0 -2 -15 0 -25 7 -25 6 0 11 5 11 10 0 27 18 5 27 -32 9
-37 12 -40 18 -20 8 24 20 28 30 11 4 -5 0 -18 -9 -28 -15 -16 -15 -20 0 -49
17 -34 34 -42 34 -16 0 18 64 84 81 84 5 0 9 -6 8 -12 -4 -30 2 -49 17 -55 9
-3 19 -1 23 5 10 16 49 3 56 -19 4 -10 15 -19 26 -19 11 0 19 -7 19 -17 1 -11
8 -4 18 17 11 23 24 35 37 35 17 0 19 -6 17 -36 -2 -23 2 -40 12 -48 16 -13
21 -6 17 22 -3 21 17 2 37 -35 18 -33 23 -55 20 -93 l-3 -50 -42 -6 c-24 -3
-44 -1 -46 4 -1 4 -15 -3 -30 -17 -19 -18 -23 -27 -15 -32 13 -8 327 -8 335 0
2 2 -1 13 -8 23 -8 14 -24 20 -52 21 -46 2 -64 14 -62 39 1 10 5 53 10 96 5
57 11 77 20 73 7 -2 16 -2 19 1 8 9 76 11 70 2 -2 -4 0 -10 5 -14 9 -5 27 18
30 38 1 4 4 7 9 7 4 0 8 -15 10 -35 2 -19 6 -35 10 -35 30 1 45 48 24 73 -8 9
-10 22 -6 29 5 7 7 21 5 32 -4 28 9 86 20 86 18 0 22 -32 10 -67 -11 -29 -10
-37 3 -52 9 -10 16 -31 16 -48 0 -44 24 -61 53 -37 31 26 38 37 32 52 -7 21
14 13 26 -9 7 -14 14 -18 21 -11 16 16 21 78 8 102 -10 19 -9 21 6 18 16 -3
26 -21 40 -75 6 -23 34 -1 34 26 0 20 7 31 26 40 22 10 25 16 19 39 -8 32 -9
60 -5 127 2 28 0 60 -4 73 -5 15 -2 27 9 38 13 13 13 19 3 32 -7 8 -11 24 -10
36 3 17 2 18 -11 8 -13 -11 -15 -9 -13 13 0 14 8 28 18 30 14 5 15 9 2 35 -16
32 -15 70 3 92 14 16 6 32 -19 41 -19 7 -25 37 -8 37 6 0 10 16 10 35 0 38 -2
40 -30 25 -20 -11 -47 11 -35 30 8 13 -8 13 -22 -1 -8 -8 -13 -8 -17 0 -4 6
-2 11 5 11 6 0 9 8 6 20 -3 11 -1 23 5 26 6 4 5 10 -3 15 -11 7 -12 12 -2 28
10 15 9 22 -1 30 -10 9 -15 8 -20 -4 -8 -23 -23 -18 -22 8 1 15 -4 21 -16 19
-12 -2 -15 3 -11 18 4 16 1 20 -22 20 -27 0 -28 0 -10 20 10 11 15 23 12 27
-4 3 0 17 9 31 12 18 14 36 9 73 -4 27 -11 49 -17 49 -6 0 -8 -7 -4 -15 6 -17
-9 -21 -19 -5 -5 8 -11 7 -21 -1 -11 -9 -18 -9 -26 -1 -8 8 -7 13 5 18 25 9
21 28 -13 52 -28 21 -30 21 -30 4 0 -10 -6 -27 -14 -37 -13 -18 -14 -18 -21 4
-4 13 -2 28 4 34 15 15 14 56 -3 73 -18 18 -26 18 -26 0 0 -8 -6 -16 -14 -19
-9 -4 -13 0 -11 11 1 9 -3 31 -11 49 -10 25 -10 39 -1 62 13 37 5 47 -41 54
-26 4 -32 2 -28 -8 3 -8 1 -17 -4 -20 -5 -3 -11 3 -15 14 -3 11 -12 25 -21 31
-12 10 -18 8 -34 -10 -11 -13 -20 -27 -20 -32 0 -18 -19 -6 -22 15 -2 14 -10
22 -23 22 -11 0 -24 10 -30 23 -10 23 -25 30 -25 11z m85 -1470 c5 -19 14 -40
19 -47 18 -29 -11 -33 -42 -5 -44 38 -42 100 3 89 5 -1 14 -18 20 -37z m385
-55 c0 -8 -5 -12 -10 -9 -6 4 -8 11 -5 16 9 14 15 11 15 -7z"/>
<path d="M193 503 c-18 -7 -44 -29 -60 -49 -25 -33 -28 -46 -28 -109 0 -60 4
-75 25 -102 14 -18 40 -37 58 -43 17 -6 32 -16 32 -21 0 -5 25 -9 55 -9 30 0
55 4 55 9 0 5 13 14 29 21 26 11 29 16 29 58 -1 78 1 92 17 92 8 0 15 3 15 8
0 6 -104 9 -120 3 -3 -1 5 -6 18 -11 20 -8 22 -16 22 -74 0 -58 -2 -64 -22
-70 -90 -24 -162 36 -167 140 -4 89 47 154 122 154 38 0 82 -29 92 -60 12 -36
20 -21 17 30 -3 42 -6 49 -18 39 -10 -8 -22 -8 -47 0 -40 14 -82 12 -124 -6z"/>
<path d="M1464 496 c-3 -8 -4 -25 -2 -38 l4 -23 13 27 c13 26 40 37 74 30 15
-3 17 -18 17 -138 0 -123 -2 -135 -20 -146 -30 -19 -25 -23 27 -21 93 3 91 3
66 13 -27 11 -25 -4 -27 158 -1 84 2 132 9 133 37 5 85 -10 85 -26 0 -7 5 -17
10 -20 6 -4 10 8 10 29 l0 36 -130 0 c-104 0 -132 -3 -136 -14z"/>
<path d="M2105 452 c-2 -3 -26 -4 -52 -4 -26 0 -41 -2 -33 -5 8 -4 17 -9 20
-14 4 -5 5 -188 1 -221 -2 -12 -35 -14 -59 -4 -30 13 -99 109 -82 114 22 8 50
41 50 61 0 10 -8 29 -18 41 -16 20 -30 24 -103 27 -77 4 -82 4 -64 -10 19 -14
21 -25 19 -114 -2 -128 -1 -123 -21 -123 -12 0 -14 -3 -6 -8 6 -4 33 -6 60 -3
39 3 44 5 26 12 -20 7 -23 16 -23 59 0 68 18 65 71 -10 46 -66 37 -62 169 -62
157 1 147 -1 159 34 l11 32 -27 -25 c-22 -19 -39 -25 -73 -25 l-45 1 -1 55 -1
56 38 -1 c26 0 43 -6 53 -20 13 -18 14 -16 13 23 -1 46 -2 48 -22 28 -8 -7
-29 -13 -47 -12 -32 1 -33 2 -35 49 0 26 3 47 8 48 5 0 23 1 39 1 56 0 61 -2
70 -24 9 -21 9 -20 7 7 -2 28 -5 30 -50 35 -26 4 -50 4 -52 2z m-209 -47 c15
-23 15 -27 1 -49 -13 -20 -63 -43 -72 -34 -3 3 -8 86 -6 101 1 4 14 7 31 7 20
0 35 -8 46 -25z"/>
<path d="M451 436 c22 -11 23 -16 22 -106 -1 -136 0 -130 -25 -131 -20 0 -20
-1 -5 -7 10 -4 36 -6 59 -4 32 4 37 7 25 14 -12 6 -17 23 -17 58 0 67 17 65
66 -6 40 -58 64 -75 97 -66 16 4 16 6 -4 16 -32 16 -97 108 -81 114 36 12 52
47 43 94 -3 21 -65 38 -131 37 -61 -1 -69 -3 -49 -13z m127 -19 c16 -13 15
-62 -2 -76 -8 -7 -26 -14 -40 -17 -25 -4 -26 -3 -26 50 0 65 22 79 68 43z"/>
<path d="M713 437 c16 -12 21 -62 18 -184 -1 -40 -5 -53 -16 -53 -8 0 -15 -3
-15 -7 0 -6 190 -5 197 0 1 1 5 16 9 32 l7 30 -19 -23 c-15 -19 -31 -24 -69
-25 l-50 -2 0 55 0 55 38 1 c31 1 40 -3 47 -20 10 -25 11 -23 14 27 1 21 -2
41 -7 44 -6 3 -7 1 -4 -4 10 -16 -14 -30 -53 -29 -34 1 -35 2 -38 48 -3 46 -3
47 30 50 44 4 86 -9 92 -30 2 -9 4 -3 3 13 l-2 30 -99 2 c-79 2 -96 0 -83 -10z"/>
<path d="M953 435 c14 -10 17 -29 17 -119 0 -101 -1 -107 -22 -116 -22 -8 -21
-9 7 -10 172 -8 177 -7 189 40 l7 25 -21 -24 c-16 -19 -31 -24 -68 -25 l-47
-1 0 55 c0 55 0 55 32 56 36 1 47 -4 56 -26 3 -8 5 8 5 35 0 28 -2 42 -5 33
-2 -10 -10 -18 -16 -19 -7 0 -27 -2 -44 -4 l-33 -3 0 49 c0 32 4 49 13 50 46
4 84 -5 97 -22 14 -18 15 -18 15 10 l0 29 -100 0 c-83 0 -97 -2 -82 -13z"/>
<path d="M1160 444 c0 -2 11 -9 24 -14 24 -9 25 -12 24 -116 0 -99 -1 -107
-21 -112 -19 -5 -19 -6 -3 -12 10 -3 33 -4 50 -2 26 4 28 6 11 12 -17 6 -19
17 -20 93 -1 48 1 87 5 87 6 0 14 -9 74 -85 22 -28 50 -61 63 -74 13 -13 23
-30 23 -37 0 -8 3 -14 8 -14 4 0 6 56 5 125 -1 71 2 127 7 130 22 13 8 25 -27
24 -21 -1 -30 -3 -20 -6 20 -5 19 2 22 -102 l2 -83 -26 28 c-15 16 -44 52 -66
79 -59 74 -68 82 -103 83 -18 0 -32 -1 -32 -4z"/>
<path d="M2258 443 c20 -4 22 -10 23 -71 2 -121 -2 -157 -17 -168 -8 -6 -14
-13 -14 -15 0 -2 34 -3 75 -2 57 2 74 -1 69 -10 -5 -9 -4 -9 7 0 7 7 21 13 30
13 9 0 19 10 22 22 8 29 0 36 -16 15 -12 -17 -86 -30 -106 -18 -11 7 -15 29
-13 76 2 29 4 31 40 29 52 -2 52 -2 52 -21 0 -32 13 -3 14 32 1 34 -8 47 -16
23 -5 -15 -80 -19 -89 -5 -6 9 -1 78 7 86 2 2 22 4 45 4 32 0 46 -5 60 -24
l19 -24 -3 30 -4 30 -104 1 c-57 0 -94 -1 -81 -3z"/>
</g>
</svg>
